# xmcd
#
# Track frame offsets: 
#        150
#        15019
#        31917
#        54858
#        83785
#        107201
#
# Disc length: 1840 seconds
#
# Revision: 0
# Processed by: cddbd v1.5.2PL0 Copyright (c) Steve Scherf et al.
# Submitted via: ExactAudioCopy v0.95b4
#
DISCID=34072e06
DTITLE=Substorm - Fable
DYEAR=2002
DGENRE=
TTITLE0=radio edit
TTITLE1=lazard radio remix
TTITLE2=(full on vocal) extended mix
TTITLE3=lazard remix
TTITLE4=original club mix
TTITLE5=kaze remix
EXTD=
EXTT0=
EXTT1=
EXTT2=
EXTT3=
EXTT4=
EXTT5=
PLAYORDER=
